<svg xmlns="http://www.w3.org/2000/svg" xmlns:xlink="http://www.w3.org/1999/xlink" version="1.1" id="Layer_1" x="0px" y="0px" viewBox="0 0 72 45" enable-background="new 0 0 72 45" xml:space="preserve"><g id="diners_club"><g><linearGradient id="SVGID_1_" gradientUnits="userSpaceOnUse" x1="36" y1="-1.411536e-09" x2="36" y2="45"><stop offset="0" style="stop-color:#FFFFFF"/><stop offset="1" style="stop-color:#BDCCD4"/></linearGradient><path fill="url(#SVGID_1_)" d="M72,40.5c0,2.475-2.025,4.5-4.5,4.5h-63C2.025,45,0,42.975,0,40.5v-36C0,2.025,2.025,0,4.5,0h63    C69.975,0,72,2.025,72,4.5V40.5z"/><g><path fill="#999999" d="M67.5,0.15c2.399,0,4.35,1.951,4.35,4.35v36c0,2.399-1.951,4.35-4.35,4.35h-63     c-2.399,0-4.35-1.951-4.35-4.35v-36c0-2.399,1.951-4.35,4.35-4.35H67.5 M67.5,0h-63C2.025,0,0,2.025,0,4.5v36     C0,42.975,2.025,45,4.5,45h63c2.475,0,4.5-2.025,4.5-4.5v-36C72,2.025,69.975,0,67.5,0L67.5,0z"/></g></g><g><path fill="#005189" d="M38.472,33.906c6.236,0.03,11.928-5.085,11.928-11.308c0-6.804-5.692-11.507-11.928-11.505h-5.367    C26.794,11.092,21.6,15.796,21.6,22.599c0,6.225,5.194,11.338,11.505,11.308H38.472z"/><path fill="#FFFFFF" d="M35.499,28.658V16.303c2.484,0.952,4.247,3.356,4.252,6.177C39.745,25.301,37.982,27.704,35.499,28.658     M26.512,22.48c0.006-2.818,1.767-5.222,4.249-6.177v12.354C28.279,27.701,26.518,25.299,26.512,22.48 M33.13,12.037    c-5.767,0.003-10.44,4.676-10.441,10.443c0.001,5.768,4.674,10.44,10.441,10.442c5.768-0.001,10.442-4.674,10.443-10.442    C43.572,16.712,38.898,12.039,33.13,12.037"/></g></g></svg>