<svg xmlns="http://www.w3.org/2000/svg" xmlns:xlink="http://www.w3.org/1999/xlink" version="1.1" id="Layer_1" x="0px" y="0px" viewBox="0 0 72 45" enable-background="new 0 0 72 45" xml:space="preserve"><g id="jcb"><g><linearGradient id="SVGID_1_" gradientUnits="userSpaceOnUse" x1="36" y1="0.15" x2="36" y2="44.5342"><stop offset="0" style="stop-color:#FFFFFF"/><stop offset="1" style="stop-color:#CCCCCC"/></linearGradient><path fill="url(#SVGID_1_)" d="M72,40.5c0,2.475-2.025,4.5-4.5,4.5h-63C2.025,45,0,42.975,0,40.5v-36C0,2.025,2.025,0,4.5,0h63    C69.975,0,72,2.025,72,4.5V40.5z"/><g><path fill="#999999" d="M67.5,0.15c2.399,0,4.35,1.951,4.35,4.35v36c0,2.399-1.951,4.35-4.35,4.35h-63     c-2.399,0-4.35-1.951-4.35-4.35v-36c0-2.399,1.951-4.35,4.35-4.35H67.5 M67.5,0h-63C2.025,0,0,2.025,0,4.5v36     C0,42.975,2.025,45,4.5,45h63c2.475,0,4.5-2.025,4.5-4.5v-36C72,2.025,69.975,0,67.5,0L67.5,0z"/></g></g><g><linearGradient id="SVGID_2_" gradientUnits="userSpaceOnUse" x1="15.3311" y1="22.5" x2="28.0751" y2="22.5"><stop offset="0" style="stop-color:#1D2970"/><stop offset="1" style="stop-color:#006DBA"/></linearGradient><path fill="url(#SVGID_2_)" d="M23.035,37.999h-7.704V12.178c0-2.859,2.318-5.177,5.177-5.177h7.567v25.958    C28.075,35.743,25.819,37.999,23.035,37.999z"/><linearGradient id="SVGID_3_" gradientUnits="userSpaceOnUse" x1="29.628" y1="22.5" x2="42.372" y2="22.5"><stop offset="0" style="stop-color:#6E2B2F"/><stop offset="1" style="stop-color:#E30138"/></linearGradient><path fill="url(#SVGID_3_)" d="M37.332,37.999h-7.704V12.178c0-2.859,2.318-5.177,5.177-5.177h7.567v25.958    C42.372,35.743,40.116,37.999,37.332,37.999z"/><linearGradient id="SVGID_4_" gradientUnits="userSpaceOnUse" x1="43.9249" y1="22.5" x2="56.6689" y2="22.5"><stop offset="0" style="stop-color:#007B40"/><stop offset="1" style="stop-color:#55B330"/></linearGradient><path fill="url(#SVGID_4_)" d="M51.629,37.999h-7.704V12.178c0-2.859,2.318-5.177,5.177-5.177h7.567v25.958    C56.669,35.743,54.412,37.999,51.629,37.999z"/><path fill="#FFFFFF" d="M22.584,23.624v-6.093h4.431c0,0,0,3.639,0,6.093c0,2.625-1.972,4.128-6.397,4.128    c-3.066,0-5.284-0.642-5.284-0.642v-2.184c0,0,2.079,1.159,4.438,1.159S22.584,24.343,22.584,23.624z"/><path fill="#FFFFFF" d="M29.628,18.923v7.149c0.463,0.418,2.194,1.681,6.23,1.681c2.694,0,5.078-0.641,5.078-0.641v-2.186    c0,0-2.055,1.162-4.43,1.162s-3.953-1.321-3.953-3.588s1.453-3.59,3.953-3.59s4.43,1.163,4.43,1.163v-2.187    c0,0-2.209-0.64-5.078-0.64C31.815,17.247,30.145,18.44,29.628,18.923z"/><path fill="#FFFFFF" d="M52.261,22.391v-0.06c0.412,0,2.352-0.504,2.352-2.372c0-1.726-1.577-2.413-3.204-2.413    c-1.246,0-6.687,0-7.485,0v9.922c0.771,0,5.921-0.003,8.133-0.003c2.229,0,3.164-1.434,3.164-2.45    C55.222,23.015,53.318,22.391,52.261,22.391z M46.448,19.075c0,0,1.572,0,2.669,0c1.097,0,1.373,0.798,1.373,1.206    c0,0.408-0.141,1.31-1.274,1.31s-2.768,0-2.768,0V19.075z M49.438,25.853c-0.942,0-2.991,0-2.991,0v-2.726c0,0,2.07,0,3.009,0    s1.39,0.747,1.39,1.363C50.846,25.106,50.38,25.853,49.438,25.853z"/></g></g></svg>